HIERARCHY
ROOT Hips
{
	OFFSET 0.000000 0.000000 0.000000
	CHANNELS 6 Xposition Yposition Zposition Zrotation Yrotation Xrotation 
	JOINT LHipJoint
	{
		OFFSET 0.000000 0.000000 0.000000
		CHANNELS 3 Zrotation Yrotation Xrotation
		JOINT LeftUpLeg
		{
			OFFSET 1.363060 -1.794630 0.839290
			CHANNELS 3 Zrotation Yrotation Xrotation
			JOINT LeftLeg
			{
				OFFSET 2.448110 -6.726130 0.000000
				CHANNELS 3 Zrotation Yrotation Xrotation
				JOINT LeftFoot
				{
					OFFSET 2.562200 -7.039590 0.000000
					CHANNELS 3 Zrotation Yrotation Xrotation
					JOINT LeftToeBase
					{
						OFFSET 0.157640 -0.433110 2.322550
						CHANNELS 3 Zrotation Yrotation Xrotation
						End Site
						{
							OFFSET 0.000000 0.000000 0.000000
						}
					}
				}
			}
		}
	}
	JOINT RHipJoint
	{
		OFFSET 0.000000 0.000000 0.000000
		CHANNELS 3 Zrotation Yrotation Xrotation
		JOINT RightUpLeg
		{
			OFFSET -1.305520 -1.794630 0.839290
			CHANNELS 3 Zrotation Yrotation Xrotation
			JOINT RightLeg
			{
				OFFSET -2.542530 -6.985550 0.000000
				CHANNELS 3 Zrotation Yrotation Xrotation
				JOINT RightFoot
				{
					OFFSET -2.568260 -7.056230 0.000000
					CHANNELS 3 Zrotation Yrotation Xrotation
					JOINT RightToeBase
					{
						OFFSET -0.164730 -0.452590 2.363150
						CHANNELS 3 Zrotation Yrotation Xrotation
						End Site
						{
							OFFSET 0.000000 0.000000 0.000000
						}
					}
				}
			}
		}
	}
	JOINT LowerBack
	{
		OFFSET 0.000000 0.000000 0.000000
		CHANNELS 3 Zrotation Yrotation Xrotation
		JOINT Spine
		{
			OFFSET 0.028270 2.035590 -0.193380
			CHANNELS 3 Zrotation Yrotation Xrotation
			JOINT Spine1
			{
				OFFSET 0.056720 2.048850 -0.042750
				CHANNELS 3 Zrotation Yrotation Xrotation
				JOINT Neck
				{
					OFFSET 0.000000 0.000000 0.000000
					CHANNELS 3 Zrotation Yrotation Xrotation
					JOINT Neck1
					{
						OFFSET -0.054170 1.746240 0.172020
						CHANNELS 3 Zrotation Yrotation Xrotation
						JOINT Head
						{
							OFFSET 0.104070 1.761360 -0.123970
							CHANNELS 3 Zrotation Yrotation Xrotation
							End Site
							{
								OFFSET 0.000000 0.000000 0.000000
							}
						}
					}
				}
				JOINT LeftShoulder
				{
					OFFSET 0.000000 0.000000 0.000000
					CHANNELS 3 Zrotation Yrotation Xrotation
					JOINT LeftArm
					{
						OFFSET 3.362410 1.200890 -0.311210
						CHANNELS 3 Zrotation Yrotation Xrotation
						JOINT LeftForeArm
						{
							OFFSET 4.983000 -0.000000 -0.000000
							CHANNELS 3 Zrotation Yrotation Xrotation
							JOINT LeftHand
							{
								OFFSET 3.483560 -0.000000 -0.000000
								CHANNELS 3 Zrotation Yrotation Xrotation
								JOINT LeftFingerBase
								{
									OFFSET 0.000000 0.000000 0.000000
									CHANNELS 3 Zrotation Yrotation Xrotation
									JOINT LeftHandIndex1
									{
										OFFSET 0.715260 -0.000000 -0.000000
										CHANNELS 3 Zrotation Yrotation Xrotation
										End Site
										{
											OFFSET 0.000000 0.000000 0.000000
										}
									}
								}
								JOINT LThumb
								{
									OFFSET 0.000000 0.000000 0.000000
									CHANNELS 3 Zrotation Yrotation Xrotation
									End Site
									{
										OFFSET 0.000000 0.000000 0.000000
									}
								}
							}
						}
					}
				}
				JOINT RightShoulder
				{
					OFFSET 0.000000 0.000000 0.000000
					CHANNELS 3 Zrotation Yrotation Xrotation
					JOINT RightArm
					{
						OFFSET -3.136600 1.374050 -0.404650
						CHANNELS 3 Zrotation Yrotation Xrotation
						JOINT RightForeArm
						{
							OFFSET -5.241900 -0.000000 -0.000000
							CHANNELS 3 Zrotation Yrotation Xrotation
							JOINT RightHand
							{
								OFFSET -3.444170 -0.000000 -0.000000
								CHANNELS 3 Zrotation Yrotation Xrotation
								JOINT RightFingerBase
								{
									OFFSET 0.000000 0.000000 0.000000
									CHANNELS 3 Zrotation Yrotation Xrotation
									JOINT RightHandIndex1
									{
										OFFSET -0.622530 -0.000000 -0.000000
										CHANNELS 3 Zrotation Yrotation Xrotation
										End Site
										{
											OFFSET 0.000000 0.000000 0.000000
										}
									}
								}
								JOINT RThumb
								{
									OFFSET 0.000000 0.000000 0.000000
									CHANNELS 3 Zrotation Yrotation Xrotation
									End Site
									{
										OFFSET 0.000000 0.000000 0.000000
									}
								}
							}
						}
					}
				}
			}
		}
	}
}
MOTION
Frames: 4
Frame Time: 0.008333
19.462692 17.611008 -2.288538 173.958018 -76.353531 179.946679 6.197008 0.696594 -0.168718 -27.581211 -10.859439 0.477721 -0.005003 9.913626 27.882633 -2.748916 14.589255 -16.337911 0.005200 0.464400 1.276200 -9.814485 -0.052372 -2.759573 35.602711 9.862410 6.221461 -0.635929 -8.652230 23.649392 2.546582 -19.008794 -25.396013 -0.686000 5.295400 -14.753000 -2.043463 -0.298280 8.445535 1.051876 -0.206192 1.169173 -1.643893 -0.724720 4.964772 4.541103 3.286770 -5.499296 7.612922 2.639282 9.617302 -1.490600 1.810100 3.625100 13.393749 0.734956 2.706680 -31.665729 -24.825039 6.623949 21.265555 -28.754777 -8.793031 -5.268276 -1.208814 5.676260 50.601727 9.667368 15.821000 -7.125000 0.000000 0.000000 27.754900 47.142700 1.586000 -13.064662 -2.511664 -0.370111 93.280354 -2.162575 50.001990 -18.198886 28.772480 -7.294003 0.466031 2.099913 -22.800466 -14.760024 3.985223 -0.620800 7.125000 0.000000 0.000000 8.123700 -27.700300 3.448400 
19.448286 17.607235 -2.279849 174.338622 -76.539989 179.608696 6.188638 0.703165 -0.157947 -27.481848 -11.010566 0.638958 -0.032633 9.843411 27.711016 -2.769544 14.613297 -16.206685 0.000800 0.182800 0.502400 -9.821372 -0.051098 -2.749271 35.717813 9.952950 6.279690 -0.625429 -8.642181 23.612916 2.584357 -19.206189 -25.520291 -0.695900 5.332700 -14.860000 -1.966652 -0.260377 8.239757 1.093185 -0.149819 1.195283 -1.560473 -0.673583 4.867093 3.849717 2.880304 -5.023938 8.608935 1.998189 9.393211 -0.906300 1.486900 3.282200 13.399904 0.884965 2.571910 -33.686938 -24.215993 11.024126 22.816821 -30.538943 -9.873612 -5.488346 -1.683936 5.728184 54.968344 13.812915 25.177600 -7.125000 0.000000 0.000000 37.009200 55.152100 10.254500 -13.130973 -2.685022 -0.313554 93.456399 -2.635640 49.428949 -17.933286 28.424954 -7.100129 0.474060 2.127902 -22.609482 -14.995471 3.703554 -0.540500 7.125000 0.000000 0.000000 7.954500 -28.018800 3.314900 
19.435710 17.604262 -2.268187 174.215599 -76.890791 179.737873 6.186236 0.695436 -0.152453 -27.482286 -11.141780 0.723066 -0.053271 9.796627 27.579603 -2.797137 14.642276 -15.978128 0.002600 -0.328600 -0.902800 -9.818102 -0.056466 -2.733926 35.715378 10.033670 6.358577 -0.620926 -8.638227 23.619025 2.579947 -19.357199 -25.883499 -0.660800 5.199000 -14.477000 -1.978075 -0.258802 8.061141 1.128429 -0.144981 1.211457 -1.543519 -0.659597 4.923137 3.902291 2.812511 -5.367110 9.052460 1.795706 9.390035 -0.766000 1.409200 3.386000 13.477481 1.055508 2.443846 -35.375983 -23.688853 15.642411 24.724374 -32.447244 -11.173401 -4.769509 -1.335479 5.693381 51.158841 9.091699 15.470200 -7.125000 0.000000 0.000000 27.654000 46.729000 1.275700 -13.149658 -2.845276 -0.306756 93.605365 -3.052285 48.876548 -17.705974 28.122519 -6.935996 0.480836 2.153966 -22.386932 -15.197208 3.444176 -0.463100 7.125000 0.000000 0.000000 7.811800 -28.314600 3.199200 
19.429079 17.601175 -2.253896 174.459818 -77.377529 179.473657 6.182531 0.700866 -0.141932 -27.377769 -11.183239 0.732250 -0.060168 9.762043 27.489211 -2.782919 14.486050 -15.594372 0.009500 -0.629200 -1.729000 -9.815331 -0.053727 -2.720035 35.826765 10.089232 6.457700 -0.616209 -8.645203 23.651139 2.581083 -19.584977 -26.357410 -0.617600 5.029500 -13.992700 -1.893172 -0.311581 8.023978 1.173444 -0.211416 1.214374 -1.488280 -0.683143 4.890346 3.735433 2.581839 -5.558596 9.463471 1.424181 9.449213 -0.585000 1.248500 3.469800 13.575925 1.219357 2.384059 -36.747348 -23.349642 20.178197 26.687834 -34.303343 -12.649576 -4.654897 -1.409410 5.732371 52.737777 9.467613 17.003600 -7.125000 0.000000 0.000000 29.586200 47.881700 2.294100 -13.192987 -2.981993 -0.309585 93.620862 -3.433913 48.513397 -17.499812 27.865331 -6.804354 0.464735 2.166359 -22.276192 -15.103651 3.160362 -0.371300 7.125000 0.000000 0.000000 7.916100 -28.626400 3.183700 
